<svg  xmlns="http://www.w3.org/2000/svg" xmlns:xlink="http://www.w3.org/1999/xlink" version="1.1" id="Layer_1" x="0px" y="0px" viewBox="0 0 512 512" style="fill: white" xml:space="preserve">
<g>
	<path d="M320.4,244.8c0,13.7-10.1,25-23,25c-12.6,0-22.9-11.2-22.9-25s10.1-25,22.9-25S320.4,231,320.4,244.8z M215.3,219.8   c-12.8,0-22.9,11.2-22.9,25c0,13.7,10.4,25,22.9,25c12.8,0,23-11.2,23-25C238.4,231,228.1,219.8,215.3,219.8z M452.9,77.3V481   c-56.7-50.1-38.6-33.5-104.4-94.7l11.9,41.6H105.2c-25.4,0-46.1-20.7-46.1-46.4V77.3c0-25.6,20.7-46.3,46.1-46.3h301.5   C432.2,31,452.9,51.7,452.9,77.3z M388.8,290.7c0-72.5-32.4-131.2-32.4-131.2c-32.4-24.3-63.2-23.6-63.2-23.6l-3.2,3.6   c38.2,11.7,56,28.6,56,28.6c-53.4-29.3-116.2-29.3-168.1-6.5c-8.3,3.8-13.3,6.5-13.3,6.5s18.7-17.8,59.2-29.5l-2.2-2.7   c0,0-30.8-0.7-63.2,23.6c0,0-32.4,58.7-32.4,131.2c0,0,18.9,32.6,68.6,34.2c0,0,8.3-10.1,15.1-18.7c-28.6-8.6-39.4-26.6-39.4-26.6   c3.3,2.3,8.8,5.3,9.2,5.6c38,21.3,91.9,28.2,140.4,7.9c7.9-2.9,16.7-7.2,25.9-13.3c0,0-11.2,18.5-40.7,26.8   c6.8,8.6,14.8,18.2,14.8,18.2C369.6,323.3,388.8,290.6,388.8,290.7L388.8,290.7z"/>
</g>
</svg>
